<svg xmlns="http://www.w3.org/2000/svg" viewBox="0 0 512 512">
  <defs>
    <linearGradient id="bg" x1="0" y1="0" x2="1" y2="1">
      <stop offset="0" stop-color="#0ea5e9"/>
      <stop offset="1" stop-color="#0284c7"/>
    </linearGradient>
  </defs>
  <rect width="512" height="512" rx="110" fill="url(#bg)"/>
  <path fill="#fff" d="M330 126c-12 0-22 10-22 22 0 9 5 17 13 20v176c0 19-15 34-34 34s-34-15-34-34V292c0-15-12-27-27-27h-18V150c0-15-12-27-27-27H149c-15 0-27 12-27 27v250h86V298h18v46c0 34 27 61 61 61s61-27 61-61V168c8-3 13-11 13-20 0-12-10-22-22-22zm-122 54h-59v-46h59v46zm122-5a12 12 0 1 1 0-24 12 12 0 0 1 0 24z"/>
</svg>

